<?xml version="1.0" encoding="UTF-8"?>
<svg xmlns="http://www.w3.org/2000/svg" xmlns:xlink="http://www.w3.org/1999/xlink" width="42" height="42" viewBox="0 0 42 42" version="1.1">
<g id="surface1">
<path style=" stroke:none;fill-rule:nonzero;fill:rgb(100%,100%,100%);fill-opacity:1;" d="M 33.566406 11.175781 L 23.121094 4.976562 C 22.515625 4.613281 21.816406 4.417969 21.105469 4.417969 C 20.398438 4.417969 19.703125 4.613281 19.09375 4.976562 L 8.644531 11.175781 C 8.027344 11.550781 7.515625 12.074219 7.164062 12.703125 C 6.8125 13.332031 6.628906 14.042969 6.632812 14.765625 L 6.632812 27.164062 C 6.628906 27.886719 6.8125 28.59375 7.164062 29.222656 C 7.519531 29.851562 8.027344 30.378906 8.644531 30.75 L 19.089844 36.953125 C 19.699219 37.3125 20.394531 37.503906 21.105469 37.503906 C 21.8125 37.503906 22.511719 37.3125 23.117188 36.953125 L 33.5625 30.75 C 34.183594 30.378906 34.691406 29.851562 35.046875 29.222656 C 35.398438 28.59375 35.585938 27.882812 35.582031 27.164062 L 35.582031 14.765625 C 35.585938 14.042969 35.398438 13.332031 35.046875 12.703125 C 34.695312 12.074219 34.183594 11.550781 33.566406 11.175781 Z M 33.566406 11.175781 "/>
<path style=" stroke:none;fill-rule:nonzero;fill:rgb(18.431373%,22.745098%,24.313726%);fill-opacity:1;" d="M 33.625 11.195312 L 23.160156 4.976562 C 22.546875 4.613281 21.851562 4.417969 21.140625 4.417969 C 20.429688 4.417969 19.726562 4.613281 19.121094 4.976562 L 8.652344 11.195312 C 8.03125 11.566406 7.519531 12.09375 7.167969 12.726562 C 6.8125 13.355469 6.628906 14.066406 6.632812 14.789062 L 6.632812 27.21875 C 6.628906 27.9375 6.8125 28.648438 7.167969 29.277344 C 7.519531 29.910156 8.03125 30.4375 8.652344 30.808594 L 19.117188 37.023438 C 19.726562 37.386719 20.425781 37.582031 21.136719 37.582031 C 21.847656 37.582031 22.546875 37.386719 23.15625 37.023438 L 33.621094 30.808594 C 34.246094 30.4375 34.753906 29.910156 35.109375 29.277344 C 35.464844 28.648438 35.644531 27.9375 35.640625 27.214844 L 35.640625 14.789062 C 35.648438 14.066406 35.464844 13.355469 35.109375 12.726562 C 34.757812 12.09375 34.246094 11.566406 33.625 11.195312 Z M 19.484375 36.386719 L 9.015625 30.171875 C 8.507812 29.867188 8.085938 29.433594 7.796875 28.914062 C 7.507812 28.398438 7.355469 27.808594 7.355469 27.21875 L 7.355469 14.789062 C 7.355469 14.195312 7.507812 13.609375 7.796875 13.089844 C 8.085938 12.570312 8.507812 12.136719 9.015625 11.828125 L 19.484375 5.617188 C 19.984375 5.316406 20.554688 5.15625 21.136719 5.15625 C 21.722656 5.15625 22.292969 5.316406 22.789062 5.617188 L 33.25 11.828125 C 33.675781 12.085938 34.039062 12.433594 34.320312 12.847656 C 34.597656 13.261719 34.78125 13.730469 34.859375 14.222656 C 34.511719 13.484375 33.726562 13.277344 32.816406 13.804688 L 22.921875 19.933594 C 21.6875 20.652344 20.777344 21.460938 20.773438 22.953125 L 20.773438 35.152344 C 20.773438 36.042969 21.132812 36.621094 21.6875 36.789062 C 21.507812 36.820312 21.320312 36.84375 21.136719 36.84375 C 20.554688 36.84375 19.984375 36.683594 19.484375 36.386719 Z M 19.484375 36.386719 "/>
<path style=" stroke:none;fill-rule:nonzero;fill:rgb(22.745098%,69.411767%,29.019609%);fill-opacity:1;" d="M 30.855469 28.390625 L 28.253906 29.945312 C 28.21875 29.957031 28.1875 29.984375 28.167969 30.011719 C 28.148438 30.042969 28.132812 30.078125 28.132812 30.117188 L 28.132812 30.800781 C 28.132812 30.882812 28.1875 30.914062 28.257812 30.878906 L 30.898438 29.273438 C 30.964844 29.222656 30.992188 29.140625 30.980469 29.0625 L 30.980469 28.460938 C 30.976562 28.382812 30.914062 28.351562 30.855469 28.390625 Z M 30.855469 28.390625 "/>
<path style=" stroke:none;fill-rule:nonzero;fill:rgb(100%,100%,100%);fill-opacity:1;" d="M 25.316406 22.660156 C 25.402344 22.621094 25.46875 22.660156 25.46875 22.78125 L 25.480469 23.691406 C 25.792969 23.546875 26.140625 23.503906 26.480469 23.566406 C 26.542969 23.585938 26.570312 23.671875 26.546875 23.773438 L 26.347656 24.570312 C 26.332031 24.632812 26.300781 24.6875 26.257812 24.734375 C 26.242188 24.746094 26.226562 24.757812 26.207031 24.769531 C 26.179688 24.785156 26.15625 24.789062 26.128906 24.785156 C 25.796875 24.707031 25.453125 24.765625 25.164062 24.9375 C 24.957031 25.03125 24.78125 25.179688 24.652344 25.371094 C 24.527344 25.558594 24.457031 25.78125 24.453125 26.011719 C 24.453125 26.429688 24.660156 26.542969 25.390625 26.558594 C 26.355469 26.570312 26.773438 26.992188 26.78125 27.964844 C 26.773438 28.46875 26.648438 28.960938 26.429688 29.410156 C 26.210938 29.859375 25.894531 30.257812 25.503906 30.574219 L 25.519531 31.464844 C 25.519531 31.519531 25.503906 31.570312 25.476562 31.621094 C 25.449219 31.667969 25.414062 31.707031 25.367188 31.734375 L 24.84375 32.039062 C 24.757812 32.082031 24.6875 32.039062 24.683594 31.921875 L 24.683594 31.046875 C 24.234375 31.234375 23.773438 31.277344 23.480469 31.160156 C 23.429688 31.140625 23.402344 31.058594 23.425781 30.964844 L 23.617188 30.160156 C 23.632812 30.09375 23.664062 30.039062 23.710938 29.992188 C 23.726562 29.980469 23.742188 29.964844 23.761719 29.953125 C 23.773438 29.953125 23.789062 29.949219 23.804688 29.949219 C 23.820312 29.949219 23.832031 29.953125 23.847656 29.953125 C 24.21875 30.058594 24.617188 30.007812 24.953125 29.816406 C 25.191406 29.703125 25.390625 29.523438 25.535156 29.300781 C 25.683594 29.082031 25.761719 28.828125 25.773438 28.5625 C 25.773438 28.109375 25.523438 27.921875 24.933594 27.917969 C 24.175781 27.917969 23.472656 27.769531 23.457031 26.664062 C 23.464844 26.183594 23.578125 25.714844 23.789062 25.285156 C 24 24.855469 24.304688 24.480469 24.679688 24.183594 L 24.644531 23.269531 C 24.644531 23.214844 24.65625 23.160156 24.683594 23.113281 C 24.710938 23.0625 24.75 23.023438 24.796875 22.996094 Z M 25.316406 22.660156 "/>
</g>
</svg>
