<?xml version="1.0" encoding="UTF-8"?>
<svg xmlns="http://www.w3.org/2000/svg" xmlns:xlink="http://www.w3.org/1999/xlink" width="48" height="48" viewBox="0 0 48 48" version="1.1">
<g id="surface1">
<path style=" stroke:none;fill-rule:nonzero;fill:rgb(100%,100%,100%);fill-opacity:1;" d="M 38.363281 12.773438 L 26.425781 5.6875 C 25.730469 5.273438 24.933594 5.050781 24.121094 5.050781 C 23.3125 5.050781 22.515625 5.273438 21.820312 5.6875 L 9.878906 12.773438 C 9.175781 13.199219 8.589844 13.800781 8.1875 14.519531 C 7.785156 15.238281 7.574219 16.050781 7.578125 16.875 L 7.578125 31.046875 C 7.574219 31.871094 7.785156 32.679688 8.1875 33.398438 C 8.59375 34.117188 9.175781 34.71875 9.878906 35.144531 L 21.816406 42.230469 C 22.511719 42.644531 23.308594 42.863281 24.121094 42.863281 C 24.929688 42.863281 25.726562 42.644531 26.421875 42.230469 L 38.359375 35.144531 C 39.066406 34.71875 39.648438 34.117188 40.054688 33.398438 C 40.457031 32.679688 40.667969 31.867188 40.664062 31.042969 L 40.664062 16.875 C 40.667969 16.050781 40.457031 15.238281 40.054688 14.519531 C 39.652344 13.800781 39.066406 13.199219 38.363281 12.773438 Z M 38.363281 12.773438 "/>
<path style=" stroke:none;fill-rule:nonzero;fill:rgb(18.431373%,22.745098%,24.313726%);fill-opacity:1;" d="M 38.429688 12.792969 L 26.46875 5.6875 C 25.769531 5.273438 24.972656 5.050781 24.160156 5.050781 C 23.347656 5.050781 22.546875 5.273438 21.851562 5.6875 L 9.886719 12.792969 C 9.179688 13.21875 8.59375 13.820312 8.191406 14.542969 C 7.785156 15.261719 7.574219 16.074219 7.578125 16.902344 L 7.578125 31.105469 C 7.574219 31.929688 7.785156 32.742188 8.191406 33.460938 C 8.59375 34.183594 9.179688 34.785156 9.886719 35.210938 L 21.847656 42.3125 C 22.546875 42.726562 23.34375 42.949219 24.15625 42.949219 C 24.96875 42.949219 25.765625 42.726562 26.464844 42.3125 L 38.425781 35.210938 C 39.136719 34.785156 39.71875 34.183594 40.125 33.460938 C 40.53125 32.742188 40.738281 31.929688 40.734375 31.101562 L 40.734375 16.902344 C 40.742188 16.074219 40.53125 15.261719 40.125 14.542969 C 39.722656 13.820312 39.136719 13.21875 38.429688 12.792969 Z M 22.269531 41.585938 L 10.304688 34.484375 C 9.722656 34.132812 9.242188 33.636719 8.910156 33.042969 C 8.578125 32.453125 8.40625 31.78125 8.40625 31.105469 L 8.40625 16.902344 C 8.40625 16.222656 8.578125 15.554688 8.910156 14.960938 C 9.242188 14.367188 9.722656 13.871094 10.304688 13.519531 L 22.269531 6.417969 C 22.839844 6.074219 23.492188 5.894531 24.15625 5.894531 C 24.824219 5.894531 25.476562 6.074219 26.046875 6.417969 L 38 13.519531 C 38.488281 13.8125 38.902344 14.210938 39.222656 14.683594 C 39.539062 15.15625 39.75 15.691406 39.839844 16.253906 C 39.441406 15.410156 38.546875 15.175781 37.503906 15.777344 L 26.195312 22.78125 C 24.785156 23.601562 23.746094 24.527344 23.742188 26.230469 L 23.742188 40.175781 C 23.742188 41.191406 24.152344 41.851562 24.785156 42.046875 C 24.578125 42.082031 24.367188 42.105469 24.15625 42.105469 C 23.492188 42.105469 22.839844 41.925781 22.269531 41.585938 Z M 22.269531 41.585938 "/>
<path style=" stroke:none;fill-rule:nonzero;fill:rgb(22.745098%,69.411767%,29.019609%);fill-opacity:1;" d="M 35.261719 32.445312 L 32.289062 34.222656 C 32.25 34.238281 32.214844 34.265625 32.191406 34.300781 C 32.167969 34.335938 32.152344 34.375 32.152344 34.417969 L 32.152344 35.199219 C 32.152344 35.296875 32.214844 35.332031 32.296875 35.289062 L 35.3125 33.453125 C 35.386719 33.398438 35.421875 33.304688 35.40625 33.214844 L 35.40625 32.527344 C 35.402344 32.4375 35.332031 32.402344 35.261719 32.445312 Z M 35.261719 32.445312 "/>
<path style=" stroke:none;fill-rule:nonzero;fill:rgb(100%,100%,100%);fill-opacity:1;" d="M 28.933594 25.898438 C 29.03125 25.851562 29.109375 25.898438 29.109375 26.035156 L 29.121094 27.074219 C 29.476562 26.910156 29.875 26.863281 30.261719 26.933594 C 30.335938 26.953125 30.367188 27.054688 30.339844 27.171875 L 30.113281 28.082031 C 30.09375 28.152344 30.058594 28.214844 30.007812 28.265625 C 29.992188 28.28125 29.972656 28.296875 29.949219 28.308594 C 29.921875 28.324219 29.890625 28.328125 29.863281 28.324219 C 29.484375 28.238281 29.089844 28.304688 28.757812 28.5 C 28.523438 28.605469 28.320312 28.777344 28.175781 28.996094 C 28.03125 29.210938 27.949219 29.464844 27.945312 29.726562 C 27.945312 30.203125 28.183594 30.335938 29.019531 30.351562 C 30.121094 30.367188 30.597656 30.847656 30.609375 31.960938 C 30.597656 32.535156 30.457031 33.097656 30.207031 33.613281 C 29.953125 34.125 29.59375 34.582031 29.148438 34.941406 L 29.164062 35.960938 C 29.164062 36.023438 29.148438 36.082031 29.117188 36.136719 C 29.085938 36.191406 29.042969 36.238281 28.992188 36.269531 L 28.390625 36.617188 C 28.292969 36.664062 28.214844 36.617188 28.210938 36.484375 L 28.210938 35.480469 C 27.695312 35.695312 27.171875 35.746094 26.835938 35.613281 C 26.777344 35.589844 26.746094 35.496094 26.773438 35.386719 L 26.992188 34.46875 C 27.007812 34.394531 27.042969 34.328125 27.097656 34.277344 C 27.117188 34.261719 27.132812 34.246094 27.15625 34.234375 C 27.171875 34.230469 27.1875 34.226562 27.203125 34.226562 C 27.222656 34.226562 27.238281 34.230469 27.253906 34.234375 C 27.679688 34.351562 28.132812 34.292969 28.519531 34.074219 C 28.789062 33.945312 29.019531 33.742188 29.183594 33.488281 C 29.351562 33.238281 29.441406 32.945312 29.453125 32.640625 C 29.453125 32.125 29.167969 31.910156 28.496094 31.90625 C 27.628906 31.90625 26.824219 31.738281 26.808594 30.472656 C 26.816406 29.925781 26.945312 29.386719 27.1875 28.898438 C 27.429688 28.40625 27.777344 27.976562 28.207031 27.636719 L 28.164062 26.59375 C 28.164062 26.53125 28.179688 26.46875 28.210938 26.414062 C 28.242188 26.359375 28.285156 26.3125 28.339844 26.28125 Z M 28.933594 25.898438 "/>
</g>
</svg>
