<?xml version="1.0" encoding="UTF-8"?>
<svg xmlns="http://www.w3.org/2000/svg" xmlns:xlink="http://www.w3.org/1999/xlink" width="42" height="42" viewBox="0 0 42 42" version="1.1">
<g id="surface1">
<path style=" stroke:none;fill-rule:nonzero;fill:rgb(36.078432%,55.29412%,73.725492%);fill-opacity:1;" d="M 35.503906 14.175781 C 35.503906 13.617188 35.386719 13.128906 35.144531 12.703125 C 34.90625 12.289062 34.554688 11.941406 34.082031 11.667969 C 30.164062 9.410156 26.238281 7.15625 22.328125 4.898438 C 21.269531 4.285156 20.246094 4.308594 19.199219 4.929688 C 17.640625 5.847656 9.832031 10.320312 7.507812 11.667969 C 6.546875 12.222656 6.082031 13.070312 6.082031 14.175781 C 6.082031 18.71875 6.082031 23.257812 6.082031 27.800781 C 6.082031 28.34375 6.195312 28.828125 6.425781 29.242188 C 6.660156 29.671875 7.019531 30.027344 7.507812 30.308594 C 9.828125 31.652344 17.640625 36.128906 19.199219 37.046875 C 20.246094 37.664062 21.269531 37.6875 22.328125 37.078125 C 26.242188 34.820312 30.164062 32.566406 34.082031 30.308594 C 34.566406 30.027344 34.925781 29.667969 35.160156 29.242188 C 35.390625 28.828125 35.507812 28.34375 35.507812 27.800781 C 35.507812 27.800781 35.507812 18.71875 35.503906 14.175781 "/>
<path style=" stroke:none;fill-rule:nonzero;fill:rgb(10.196079%,27.450982%,45.490196%);fill-opacity:1;" d="M 20.839844 20.941406 L 6.425781 29.242188 C 6.660156 29.671875 7.019531 30.027344 7.507812 30.308594 C 9.828125 31.652344 17.640625 36.128906 19.199219 37.046875 C 20.246094 37.664062 21.269531 37.6875 22.328125 37.078125 C 26.242188 34.820312 30.164062 32.566406 34.082031 30.308594 C 34.566406 30.027344 34.925781 29.667969 35.160156 29.242188 L 20.839844 20.941406 "/>
<path style=" stroke:none;fill-rule:nonzero;fill:rgb(10.196079%,27.450982%,45.490196%);fill-opacity:1;" d="M 16.570312 23.402344 C 17.40625 24.867188 18.984375 25.851562 20.792969 25.851562 C 22.613281 25.851562 24.199219 24.851562 25.03125 23.371094 L 20.839844 20.941406 L 16.570312 23.402344 "/>
<path style=" stroke:none;fill-rule:nonzero;fill:rgb(10.588235%,34.901962%,55.686277%);fill-opacity:1;" d="M 35.503906 14.175781 C 35.503906 13.617188 35.386719 13.128906 35.144531 12.703125 L 20.839844 20.941406 L 35.160156 29.242188 C 35.390625 28.828125 35.507812 28.34375 35.507812 27.800781 C 35.507812 27.800781 35.507812 18.71875 35.503906 14.175781 "/>
<path style=" stroke:none;fill-rule:nonzero;fill:rgb(100%,100%,100%);fill-opacity:1;" d="M 34.714844 21.535156 L 33.597656 21.535156 L 33.597656 22.65625 L 32.476562 22.65625 L 32.476562 21.535156 L 31.359375 21.535156 L 31.359375 20.417969 L 32.476562 20.417969 L 32.476562 19.296875 L 33.597656 19.296875 L 33.597656 20.417969 L 34.714844 20.417969 Z M 34.714844 21.535156 "/>
<path style=" stroke:none;fill-rule:nonzero;fill:rgb(100%,100%,100%);fill-opacity:1;" d="M 30.632812 21.535156 L 29.515625 21.535156 L 29.515625 22.65625 L 28.394531 22.65625 L 28.394531 21.535156 L 27.273438 21.535156 L 27.273438 20.417969 L 28.394531 20.417969 L 28.394531 19.296875 L 29.515625 19.296875 L 29.515625 20.417969 L 30.632812 20.417969 Z M 30.632812 21.535156 "/>
<path style=" stroke:none;fill-rule:nonzero;fill:rgb(100%,100%,100%);fill-opacity:1;" d="M 25.03125 23.371094 C 24.199219 24.851562 22.613281 25.851562 20.792969 25.851562 C 18.984375 25.851562 17.40625 24.867188 16.570312 23.402344 C 16.148438 22.667969 15.929688 21.835938 15.929688 20.984375 C 15.929688 18.300781 18.105469 16.121094 20.792969 16.121094 C 22.589844 16.121094 24.15625 17.097656 25.003906 18.546875 L 29.253906 16.097656 C 27.5625 13.179688 24.40625 11.214844 20.792969 11.214844 C 15.394531 11.214844 11.019531 15.589844 11.019531 20.984375 C 11.019531 22.757812 11.492188 24.417969 12.316406 25.851562 C 14 28.78125 17.164062 30.757812 20.792969 30.757812 C 24.425781 30.757812 27.597656 28.777344 29.277344 25.832031 Z M 25.03125 23.371094 "/>
</g>
</svg>
