<?xml version="1.0" encoding="UTF-8"?>
<svg xmlns="http://www.w3.org/2000/svg" xmlns:xlink="http://www.w3.org/1999/xlink" width="48" height="48" viewBox="0 0 48 48" version="1.1">
<g id="surface1">
<path style=" stroke:none;fill-rule:nonzero;fill:rgb(36.078432%,55.29412%,73.725492%);fill-opacity:1;" d="M 40.574219 16.199219 C 40.574219 15.5625 40.441406 15.003906 40.164062 14.519531 C 39.894531 14.046875 39.492188 13.648438 38.949219 13.335938 C 34.472656 10.753906 29.988281 8.179688 25.515625 5.597656 C 24.308594 4.898438 23.136719 4.925781 21.941406 5.632812 C 20.160156 6.683594 11.238281 11.792969 8.578125 13.335938 C 7.484375 13.96875 6.949219 14.9375 6.949219 16.199219 C 6.949219 21.390625 6.949219 26.582031 6.949219 31.773438 C 6.949219 32.394531 7.078125 32.945312 7.34375 33.421875 C 7.613281 33.910156 8.023438 34.316406 8.578125 34.636719 C 11.234375 36.175781 20.160156 41.289062 21.941406 42.339844 C 23.136719 43.046875 24.308594 43.070312 25.515625 42.375 C 29.992188 39.792969 34.472656 37.21875 38.949219 34.636719 C 39.503906 34.316406 39.914062 33.90625 40.183594 33.417969 C 40.445312 32.945312 40.578125 32.394531 40.578125 31.773438 C 40.578125 31.773438 40.578125 21.390625 40.574219 16.199219 "/>
<path style=" stroke:none;fill-rule:nonzero;fill:rgb(10.196079%,27.450982%,45.490196%);fill-opacity:1;" d="M 23.816406 23.933594 L 7.34375 33.421875 C 7.613281 33.910156 8.023438 34.316406 8.578125 34.636719 C 11.234375 36.175781 20.160156 41.289062 21.941406 42.339844 C 23.136719 43.046875 24.308594 43.070312 25.515625 42.375 C 29.992188 39.792969 34.472656 37.21875 38.949219 34.636719 C 39.503906 34.316406 39.914062 33.90625 40.183594 33.417969 L 23.816406 23.933594 "/>
<path style=" stroke:none;fill-rule:nonzero;fill:rgb(10.196079%,27.450982%,45.490196%);fill-opacity:1;" d="M 18.9375 26.746094 C 19.894531 28.417969 21.695312 29.546875 23.761719 29.546875 C 25.84375 29.546875 27.65625 28.402344 28.609375 26.710938 L 23.816406 23.933594 L 18.9375 26.746094 "/>
<path style=" stroke:none;fill-rule:nonzero;fill:rgb(10.588235%,34.901962%,55.686277%);fill-opacity:1;" d="M 40.574219 16.199219 C 40.574219 15.5625 40.441406 15.003906 40.164062 14.519531 L 23.816406 23.933594 L 40.183594 33.417969 C 40.445312 32.945312 40.578125 32.394531 40.578125 31.773438 C 40.578125 31.773438 40.578125 21.390625 40.574219 16.199219 "/>
<path style=" stroke:none;fill-rule:nonzero;fill:rgb(100%,100%,100%);fill-opacity:1;" d="M 39.675781 24.613281 L 38.398438 24.613281 L 38.398438 25.894531 L 37.117188 25.894531 L 37.117188 24.613281 L 35.839844 24.613281 L 35.839844 23.335938 L 37.117188 23.335938 L 37.117188 22.054688 L 38.398438 22.054688 L 38.398438 23.335938 L 39.675781 23.335938 Z M 39.675781 24.613281 "/>
<path style=" stroke:none;fill-rule:nonzero;fill:rgb(100%,100%,100%);fill-opacity:1;" d="M 35.007812 24.613281 L 33.730469 24.613281 L 33.730469 25.894531 L 32.449219 25.894531 L 32.449219 24.613281 L 31.171875 24.613281 L 31.171875 23.335938 L 32.449219 23.335938 L 32.449219 22.054688 L 33.730469 22.054688 L 33.730469 23.335938 L 35.007812 23.335938 Z M 35.007812 24.613281 "/>
<path style=" stroke:none;fill-rule:nonzero;fill:rgb(100%,100%,100%);fill-opacity:1;" d="M 28.609375 26.710938 C 27.65625 28.402344 25.84375 29.546875 23.761719 29.546875 C 21.695312 29.546875 19.894531 28.417969 18.9375 26.746094 C 18.453125 25.90625 18.203125 24.953125 18.203125 23.984375 C 18.203125 20.914062 20.691406 18.425781 23.761719 18.425781 C 25.816406 18.425781 27.609375 19.539062 28.574219 21.195312 L 33.433594 18.398438 C 31.5 15.0625 27.894531 12.816406 23.761719 12.816406 C 17.59375 12.816406 12.59375 17.816406 12.59375 23.984375 C 12.59375 26.007812 13.132812 27.90625 14.074219 29.542969 C 16 32.894531 19.617188 35.152344 23.761719 35.152344 C 27.914062 35.152344 31.539062 32.886719 33.460938 29.523438 Z M 28.609375 26.710938 "/>
</g>
</svg>
