<?xml version="1.0" encoding="UTF-8"?>
<svg xmlns="http://www.w3.org/2000/svg" xmlns:xlink="http://www.w3.org/1999/xlink" width="42" height="42" viewBox="0 0 42 42" version="1.1">
<g id="surface1">
<path style=" stroke:none;fill-rule:evenodd;fill:rgb(0%,30.19608%,25.098041%);fill-opacity:1;" d="M 7 14 L 7 25.0625 C 5.824219 25.285156 5.207031 25.375 4.269531 25.375 C 1.460938 25.371094 0 24.121094 0 21.714844 C 0 19.398438 1.546875 17.894531 3.953125 17.894531 C 4.324219 17.894531 4.609375 17.921875 4.953125 18.007812 L 4.953125 14 Z M 4.953125 19.835938 C 4.683594 19.75 4.460938 19.722656 4.175781 19.722656 C 3.015625 19.722656 2.339844 20.429688 2.339844 21.671875 C 2.339844 22.878906 2.984375 23.546875 4.164062 23.546875 C 4.414062 23.546875 4.621094 23.53125 4.953125 23.488281 Z M 4.953125 19.835938 "/>
<path style=" stroke:none;fill-rule:evenodd;fill:rgb(0%,30.19608%,25.098041%);fill-opacity:1;" d="M 10.5 17.539062 L 10.5 23.332031 C 10.5 25.144531 10.363281 26.152344 9.964844 26.902344 C 9.589844 27.628906 9.101562 28.085938 8.085938 28.585938 L 5.953125 27.582031 C 6.96875 27.109375 7.460938 26.695312 7.773438 26.058594 C 8.101562 25.410156 8.207031 24.523438 8.207031 22.546875 L 8.207031 17.539062 Z M 10.5 17.539062 "/>
<path style=" stroke:none;fill-rule:evenodd;fill:rgb(0%,30.19608%,25.098041%);fill-opacity:1;" d="M 8.207031 14 L 10.5 14 L 10.5 16.375 L 8.207031 16.375 Z M 8.207031 14 "/>
<path style=" stroke:none;fill-rule:evenodd;fill:rgb(0%,30.19608%,25.098041%);fill-opacity:1;" d="M 12.015625 18.265625 C 13.011719 17.785156 13.960938 17.570312 15 17.570312 C 16.15625 17.570312 16.914062 17.890625 17.25 18.507812 C 17.4375 18.855469 17.5 19.308594 17.5 20.277344 L 17.5 25.007812 C 16.492188 25.160156 15.21875 25.265625 14.289062 25.265625 C 12.398438 25.265625 11.554688 24.585938 11.554688 23.074219 C 11.554688 21.441406 12.675781 20.6875 15.4375 20.441406 L 15.4375 19.933594 C 15.4375 19.507812 15.234375 19.355469 14.667969 19.355469 C 13.835938 19.355469 12.898438 19.597656 12.019531 20.066406 Z M 15.542969 21.96875 C 14.050781 22.117188 13.570312 22.359375 13.570312 22.964844 C 13.570312 23.421875 13.847656 23.632812 14.460938 23.632812 C 14.796875 23.632812 15.105469 23.605469 15.542969 23.53125 Z M 15.542969 21.96875 "/>
<path style=" stroke:none;fill-rule:evenodd;fill:rgb(0%,30.19608%,25.098041%);fill-opacity:1;" d="M 18.742188 18.105469 C 20.070312 17.738281 21.167969 17.570312 22.277344 17.570312 C 23.429688 17.570312 24.265625 17.847656 24.757812 18.386719 C 25.226562 18.890625 25.375 19.445312 25.375 20.628906 L 25.375 25.265625 L 23.121094 25.265625 L 23.121094 20.71875 C 23.121094 19.8125 22.828125 19.476562 22.027344 19.476562 C 21.722656 19.476562 21.441406 19.507812 20.988281 19.648438 L 20.988281 25.269531 L 18.742188 25.269531 Z M 18.742188 18.105469 "/>
<path style=" stroke:none;fill-rule:evenodd;fill:rgb(0%,30.19608%,25.098041%);fill-opacity:1;" d="M 26.402344 26.257812 C 27.210938 26.679688 28.015625 26.875 28.863281 26.875 C 30.371094 26.875 31.011719 26.460938 31.011719 24.972656 L 31.011719 24.925781 C 30.566406 25.152344 30.117188 25.25 29.519531 25.25 C 27.507812 25.25 26.25 23.894531 26.25 21.75 C 26.25 19.085938 28.125 17.582031 31.476562 17.582031 C 32.464844 17.582031 33.375 17.6875 34.476562 17.917969 L 33.691406 19.605469 C 33.078125 19.484375 33.640625 19.589844 33.179688 19.542969 L 33.179688 19.785156 L 33.210938 20.777344 L 33.222656 22.054688 C 33.234375 22.375 33.234375 22.695312 33.253906 23.011719 L 33.253906 23.652344 C 33.253906 25.664062 33.085938 26.394531 32.597656 27.167969 C 31.878906 28.3125 30.640625 28.875 28.882812 28.875 C 27.984375 28.875 27.210938 28.738281 26.402344 28.417969 Z M 30.96875 19.46875 L 30.726562 19.46875 C 30.28125 19.453125 29.757812 19.574219 29.398438 19.804688 C 28.851562 20.125 28.5625 20.703125 28.5625 21.523438 C 28.5625 22.691406 29.132812 23.363281 30.148438 23.363281 C 30.460938 23.363281 30.714844 23.304688 31.011719 23.210938 L 31.011719 22.40625 C 31.011719 22.128906 30.996094 21.824219 30.996094 21.507812 L 30.980469 20.425781 L 30.96875 19.648438 Z M 30.96875 19.46875 "/>
<path style=" stroke:none;fill-rule:evenodd;fill:rgb(0%,30.19608%,25.098041%);fill-opacity:1;" d="M 38.121094 17.539062 C 40.53125 17.539062 42 18.992188 42 21.34375 C 42 23.753906 40.464844 25.269531 38.023438 25.269531 C 35.613281 25.269531 34.125 23.816406 34.125 21.476562 C 34.128906 19.050781 35.664062 17.539062 38.121094 17.539062 Z M 38.070312 23.410156 C 38.996094 23.410156 39.542969 22.675781 39.542969 21.398438 C 39.542969 20.140625 39.007812 19.394531 38.085938 19.394531 C 37.128906 19.394531 36.582031 20.128906 36.582031 21.398438 C 36.582031 22.675781 37.132812 23.410156 38.070312 23.410156 Z M 38.070312 23.410156 "/>
</g>
</svg>
