<?xml version="1.0" encoding="UTF-8"?>
<svg xmlns="http://www.w3.org/2000/svg" xmlns:xlink="http://www.w3.org/1999/xlink" width="48" height="48" viewBox="0 0 48 48" version="1.1">
<g id="surface1">
<path style=" stroke:none;fill-rule:nonzero;fill:rgb(3.921569%,81.176472%,51.372552%);fill-opacity:1;" d="M 17.683594 42.949219 C 19.359375 42.949219 20.964844 42.28125 22.148438 41.097656 C 23.335938 39.914062 24 38.308594 24 36.632812 L 24 30.316406 L 17.683594 30.316406 C 16.007812 30.316406 14.402344 30.980469 13.21875 32.164062 C 12.035156 33.351562 11.367188 34.957031 11.367188 36.632812 C 11.367188 38.308594 12.035156 39.914062 13.21875 41.097656 C 14.402344 42.28125 16.007812 42.949219 17.683594 42.949219 Z M 17.683594 42.949219 "/>
<path style=" stroke:none;fill-rule:nonzero;fill:rgb(63.529414%,34.901962%,100%);fill-opacity:1;" d="M 11.367188 24 C 11.367188 22.324219 12.035156 20.71875 13.21875 19.535156 C 14.402344 18.351562 16.007812 17.683594 17.683594 17.683594 L 24 17.683594 L 24 30.316406 L 17.683594 30.316406 C 16.007812 30.316406 14.402344 29.648438 13.21875 28.464844 C 12.035156 27.28125 11.367188 25.675781 11.367188 24 Z M 11.367188 24 "/>
<path style=" stroke:none;fill-rule:nonzero;fill:rgb(94.901961%,30.588236%,11.764706%);fill-opacity:1;" d="M 11.367188 11.367188 C 11.367188 9.695312 12.03125 8.089844 13.214844 6.902344 C 14.398438 5.71875 16.003906 5.054688 17.679688 5.050781 L 23.996094 5.050781 L 23.996094 17.683594 L 17.683594 17.683594 C 16.007812 17.683594 14.402344 17.019531 13.21875 15.835938 C 12.035156 14.648438 11.367188 13.042969 11.367188 11.367188 Z M 11.367188 11.367188 "/>
<path style=" stroke:none;fill-rule:nonzero;fill:rgb(100%,44.705883%,38.431373%);fill-opacity:1;" d="M 24 5.050781 L 30.316406 5.050781 C 31.992188 5.050781 33.597656 5.71875 34.78125 6.902344 C 35.964844 8.085938 36.632812 9.691406 36.632812 11.367188 C 36.632812 13.042969 35.964844 14.648438 34.78125 15.835938 C 33.597656 17.019531 31.992188 17.683594 30.316406 17.683594 L 24 17.683594 Z M 24 5.050781 "/>
<path style=" stroke:none;fill-rule:nonzero;fill:rgb(10.196079%,73.725492%,99.607843%);fill-opacity:1;" d="M 36.632812 24 C 36.632812 25.675781 35.964844 27.28125 34.78125 28.464844 C 33.597656 29.648438 31.992188 30.316406 30.316406 30.316406 C 28.640625 30.316406 27.035156 29.648438 25.851562 28.464844 C 24.664062 27.28125 24 25.675781 24 24 C 24 22.324219 24.664062 20.71875 25.851562 19.535156 C 27.035156 18.351562 28.640625 17.683594 30.316406 17.683594 C 31.992188 17.683594 33.597656 18.351562 34.78125 19.535156 C 35.964844 20.71875 36.632812 22.324219 36.632812 24 Z M 36.632812 24 "/>
</g>
</svg>
