<?xml version="1.0" encoding="UTF-8"?>
<svg xmlns="http://www.w3.org/2000/svg" xmlns:xlink="http://www.w3.org/1999/xlink" width="42" height="42" viewBox="0 0 42 42" version="1.1">
<g id="surface1">
<path style=" stroke:none;fill-rule:nonzero;fill:rgb(3.921569%,81.176472%,51.372552%);fill-opacity:1;" d="M 15.472656 37.582031 C 16.9375 37.582031 18.34375 36.996094 19.378906 35.960938 C 20.417969 34.925781 21 33.519531 21 32.054688 L 21 26.527344 L 15.472656 26.527344 C 14.007812 26.527344 12.601562 27.109375 11.566406 28.144531 C 10.53125 29.183594 9.945312 30.585938 9.945312 32.054688 C 9.945312 33.519531 10.53125 34.925781 11.566406 35.960938 C 12.601562 36.996094 14.007812 37.582031 15.472656 37.582031 Z M 15.472656 37.582031 "/>
<path style=" stroke:none;fill-rule:nonzero;fill:rgb(63.529414%,34.901962%,100%);fill-opacity:1;" d="M 9.945312 21 C 9.945312 19.535156 10.53125 18.128906 11.566406 17.09375 C 12.601562 16.058594 14.007812 15.472656 15.472656 15.472656 L 21 15.472656 L 21 26.527344 L 15.472656 26.527344 C 14.007812 26.527344 12.601562 25.941406 11.566406 24.90625 C 10.53125 23.871094 9.945312 22.464844 9.945312 21 Z M 9.945312 21 "/>
<path style=" stroke:none;fill-rule:nonzero;fill:rgb(94.901961%,30.588236%,11.764706%);fill-opacity:1;" d="M 9.945312 9.945312 C 9.945312 8.484375 10.527344 7.078125 11.5625 6.039062 C 12.597656 5.003906 14.003906 4.421875 15.46875 4.417969 L 20.996094 4.417969 L 20.996094 15.472656 L 15.472656 15.472656 C 14.007812 15.472656 12.601562 14.890625 11.566406 13.855469 C 10.53125 12.816406 9.945312 11.414062 9.945312 9.945312 Z M 9.945312 9.945312 "/>
<path style=" stroke:none;fill-rule:nonzero;fill:rgb(100%,44.705883%,38.431373%);fill-opacity:1;" d="M 21 4.417969 L 26.527344 4.417969 C 27.992188 4.417969 29.398438 5.003906 30.433594 6.039062 C 31.46875 7.074219 32.054688 8.480469 32.054688 9.945312 C 32.054688 11.414062 31.46875 12.816406 30.433594 13.855469 C 29.398438 14.890625 27.992188 15.472656 26.527344 15.472656 L 21 15.472656 Z M 21 4.417969 "/>
<path style=" stroke:none;fill-rule:nonzero;fill:rgb(10.196079%,73.725492%,99.607843%);fill-opacity:1;" d="M 32.054688 21 C 32.054688 22.464844 31.46875 23.871094 30.433594 24.90625 C 29.398438 25.941406 27.992188 26.527344 26.527344 26.527344 C 25.0625 26.527344 23.65625 25.941406 22.621094 24.90625 C 21.582031 23.871094 21 22.464844 21 21 C 21 19.535156 21.582031 18.128906 22.621094 17.09375 C 23.65625 16.058594 25.0625 15.472656 26.527344 15.472656 C 27.992188 15.472656 29.398438 16.058594 30.433594 17.09375 C 31.46875 18.128906 32.054688 19.535156 32.054688 21 Z M 32.054688 21 "/>
</g>
</svg>
