<?xml version="1.0" encoding="UTF-8"?>
<svg xmlns="http://www.w3.org/2000/svg" xmlns:xlink="http://www.w3.org/1999/xlink" width="42" height="42" viewBox="0 0 42 42" version="1.1">
<g id="surface1">
<path style=" stroke:none;fill-rule:nonzero;fill:rgb(94.117647%,23.529412%,18.039216%);fill-opacity:1;" d="M 36.953125 19.523438 L 22.476562 5.046875 C 22.277344 4.847656 22.046875 4.6875 21.785156 4.582031 C 21.527344 4.476562 21.25 4.417969 20.96875 4.417969 C 20.6875 4.417969 20.410156 4.476562 20.152344 4.582031 C 19.890625 4.6875 19.65625 4.847656 19.457031 5.046875 L 16.453125 8.054688 L 20.265625 11.863281 C 21.152344 11.554688 22.167969 11.765625 22.875 12.472656 C 23.210938 12.8125 23.445312 13.234375 23.554688 13.699219 C 23.660156 14.164062 23.636719 14.644531 23.476562 15.097656 L 27.152344 18.773438 C 28.039062 18.46875 29.066406 18.664062 29.777344 19.375 C 30.011719 19.613281 30.203125 19.890625 30.328125 20.199219 C 30.457031 20.507812 30.523438 20.839844 30.523438 21.175781 C 30.523438 21.507812 30.457031 21.835938 30.328125 22.144531 C 30.203125 22.453125 30.011719 22.734375 29.777344 22.96875 C 29.542969 23.203125 29.261719 23.390625 28.953125 23.523438 C 28.644531 23.648438 28.3125 23.714844 27.980469 23.714844 C 27.648438 23.714844 27.316406 23.648438 27.007812 23.519531 C 26.699219 23.390625 26.417969 23.203125 26.179688 22.96875 C 25.4375 22.222656 25.25 21.125 25.632812 20.207031 L 22.203125 16.777344 L 22.203125 25.796875 C 22.453125 25.921875 22.679688 26.082031 22.875 26.28125 C 23.113281 26.515625 23.300781 26.792969 23.425781 27.105469 C 23.554688 27.414062 23.621094 27.742188 23.621094 28.074219 C 23.621094 28.410156 23.554688 28.738281 23.425781 29.050781 C 23.300781 29.355469 23.113281 29.636719 22.875 29.875 C 22.640625 30.109375 22.359375 30.296875 22.054688 30.421875 C 21.742188 30.550781 21.414062 30.617188 21.078125 30.617188 C 20.742188 30.617188 20.414062 30.550781 20.109375 30.421875 C 19.796875 30.296875 19.515625 30.109375 19.28125 29.875 C 19.046875 29.636719 18.855469 29.355469 18.730469 29.050781 C 18.605469 28.742188 18.535156 28.410156 18.535156 28.074219 C 18.535156 27.742188 18.605469 27.414062 18.730469 27.105469 C 18.855469 26.792969 19.046875 26.511719 19.28125 26.28125 C 19.527344 26.035156 19.800781 25.851562 20.113281 25.722656 L 20.113281 16.621094 C 19.8125 16.496094 19.527344 16.3125 19.28125 16.066406 C 18.925781 15.710938 18.683594 15.253906 18.585938 14.761719 C 18.488281 14.265625 18.539062 13.753906 18.734375 13.289062 L 14.972656 9.53125 L 5.046875 19.445312 C 4.851562 19.644531 4.691406 19.878906 4.582031 20.140625 C 4.476562 20.398438 4.417969 20.675781 4.417969 20.957031 C 4.417969 21.234375 4.476562 21.511719 4.582031 21.773438 C 4.691406 22.03125 4.851562 22.269531 5.046875 22.464844 L 19.523438 36.941406 C 19.722656 37.140625 19.957031 37.296875 20.21875 37.402344 C 20.476562 37.511719 20.753906 37.566406 21.035156 37.566406 C 21.3125 37.566406 21.589844 37.511719 21.851562 37.402344 C 22.109375 37.296875 22.347656 37.140625 22.546875 36.941406 L 36.953125 22.554688 C 37.152344 22.355469 37.3125 22.121094 37.417969 21.859375 C 37.527344 21.601562 37.582031 21.324219 37.582031 21.042969 C 37.582031 20.765625 37.527344 20.484375 37.417969 20.226562 C 37.3125 19.96875 37.152344 19.730469 36.953125 19.535156 "/>
</g>
</svg>
