<?xml version="1.0" encoding="UTF-8"?>
<svg xmlns="http://www.w3.org/2000/svg" xmlns:xlink="http://www.w3.org/1999/xlink" width="48" height="48" viewBox="0 0 48 48" version="1.1">
<g id="surface1">
<path style=" stroke:none;fill-rule:nonzero;fill:rgb(94.117647%,23.529412%,18.039216%);fill-opacity:1;" d="M 42.234375 22.3125 L 25.6875 5.765625 C 25.460938 5.539062 25.195312 5.359375 24.898438 5.238281 C 24.601562 5.117188 24.285156 5.050781 23.964844 5.050781 C 23.644531 5.050781 23.324219 5.117188 23.03125 5.238281 C 22.734375 5.359375 22.464844 5.539062 22.238281 5.765625 L 18.804688 9.203125 L 23.160156 13.558594 C 24.175781 13.203125 25.335938 13.445312 26.144531 14.253906 C 26.527344 14.640625 26.796875 15.125 26.917969 15.65625 C 27.039062 16.1875 27.011719 16.738281 26.832031 17.253906 L 31.03125 21.453125 C 32.046875 21.105469 33.21875 21.332031 34.03125 22.144531 C 34.300781 22.414062 34.515625 22.734375 34.660156 23.085938 C 34.808594 23.4375 34.882812 23.816406 34.882812 24.199219 C 34.882812 24.578125 34.808594 24.957031 34.660156 25.308594 C 34.515625 25.660156 34.300781 25.980469 34.03125 26.25 C 33.761719 26.519531 33.441406 26.734375 33.089844 26.882812 C 32.738281 27.027344 32.359375 27.101562 31.976562 27.101562 C 31.597656 27.101562 31.21875 27.027344 30.867188 26.878906 C 30.511719 26.734375 30.191406 26.519531 29.921875 26.25 C 29.070312 25.398438 28.859375 24.144531 29.292969 23.09375 L 25.375 19.175781 L 25.375 29.484375 C 25.660156 29.625 25.917969 29.808594 26.144531 30.035156 C 26.414062 30.304688 26.628906 30.621094 26.773438 30.976562 C 26.917969 31.328125 26.996094 31.707031 26.996094 32.085938 C 26.996094 32.46875 26.917969 32.84375 26.773438 33.199219 C 26.628906 33.550781 26.414062 33.871094 26.144531 34.140625 C 25.875 34.410156 25.554688 34.625 25.203125 34.769531 C 24.847656 34.914062 24.472656 34.992188 24.089844 34.992188 C 23.707031 34.992188 23.332031 34.914062 22.980469 34.769531 C 22.625 34.625 22.304688 34.410156 22.035156 34.140625 C 21.765625 33.871094 21.550781 33.550781 21.40625 33.199219 C 21.261719 32.847656 21.183594 32.46875 21.183594 32.085938 C 21.183594 31.707031 21.261719 31.328125 21.40625 30.976562 C 21.550781 30.621094 21.765625 30.300781 22.035156 30.035156 C 22.316406 29.753906 22.628906 29.542969 22.988281 29.398438 L 22.988281 18.996094 C 22.640625 18.851562 22.316406 18.644531 22.035156 18.363281 C 21.628906 17.953125 21.351562 17.433594 21.242188 16.871094 C 21.128906 16.304688 21.1875 15.71875 21.410156 15.1875 L 17.113281 10.890625 L 5.769531 22.222656 C 5.542969 22.449219 5.363281 22.71875 5.238281 23.015625 C 5.117188 23.3125 5.050781 23.628906 5.050781 23.949219 C 5.050781 24.269531 5.117188 24.585938 5.238281 24.882812 C 5.363281 25.179688 5.542969 25.449219 5.769531 25.675781 L 22.3125 42.21875 C 22.539062 42.445312 22.808594 42.625 23.105469 42.746094 C 23.402344 42.871094 23.71875 42.933594 24.039062 42.933594 C 24.359375 42.933594 24.675781 42.871094 24.972656 42.746094 C 25.269531 42.625 25.539062 42.445312 25.765625 42.21875 L 42.234375 25.777344 C 42.460938 25.550781 42.640625 25.28125 42.761719 24.984375 C 42.886719 24.6875 42.949219 24.371094 42.949219 24.050781 C 42.949219 23.730469 42.886719 23.410156 42.761719 23.117188 C 42.640625 22.820312 42.460938 22.550781 42.234375 22.324219 "/>
</g>
</svg>
