<?xml version="1.0" encoding="UTF-8"?>
<svg xmlns="http://www.w3.org/2000/svg" xmlns:xlink="http://www.w3.org/1999/xlink" width="48" height="48" viewBox="0 0 48 48" version="1.1">
<g id="surface1">
<path style=" stroke:none;fill-rule:nonzero;fill:rgb(96.862745%,87.450981%,11.764706%);fill-opacity:1;" d="M 5.050781 5.050781 L 42.949219 5.050781 L 42.949219 42.949219 L 5.050781 42.949219 Z M 5.050781 5.050781 "/>
<path style=" stroke:none;fill-rule:nonzero;fill:rgb(0%,0%,0%);fill-opacity:1;" d="M 15.015625 36.71875 L 17.917969 34.964844 C 18.476562 35.957031 18.984375 36.796875 20.207031 36.796875 C 21.375 36.796875 22.113281 36.339844 22.113281 34.558594 L 22.113281 22.449219 L 25.675781 22.449219 L 25.675781 34.609375 C 25.675781 38.296875 23.511719 39.976562 20.359375 39.976562 C 17.507812 39.976562 15.855469 38.5 15.015625 36.71875 "/>
<path style=" stroke:none;fill-rule:nonzero;fill:rgb(0%,0%,0%);fill-opacity:1;" d="M 27.609375 36.339844 L 30.507812 34.660156 C 31.273438 35.90625 32.265625 36.820312 34.019531 36.820312 C 35.496094 36.820312 36.433594 36.085938 36.433594 35.066406 C 36.433594 33.847656 35.46875 33.414062 33.839844 32.703125 L 32.949219 32.320312 C 30.382812 31.226562 28.675781 29.851562 28.675781 26.953125 C 28.675781 24.28125 30.710938 22.246094 33.890625 22.246094 C 36.15625 22.246094 37.785156 23.035156 38.953125 25.09375 L 36.179688 26.875 C 35.570312 25.78125 34.910156 25.351562 33.890625 25.351562 C 32.847656 25.351562 32.1875 26.011719 32.1875 26.875 C 32.1875 27.945312 32.847656 28.378906 34.375 29.039062 L 35.265625 29.421875 C 38.292969 30.71875 39.996094 32.039062 39.996094 35.015625 C 39.996094 38.222656 37.476562 39.976562 34.09375 39.976562 C 30.789062 39.976562 28.652344 38.398438 27.609375 36.339844 "/>
</g>
</svg>
