<?xml version="1.0" encoding="UTF-8"?>
<svg xmlns="http://www.w3.org/2000/svg" xmlns:xlink="http://www.w3.org/1999/xlink" width="42" height="42" viewBox="0 0 42 42" version="1.1">
<g id="surface1">
<path style=" stroke:none;fill-rule:nonzero;fill:rgb(96.862745%,87.450981%,11.764706%);fill-opacity:1;" d="M 4.417969 4.417969 L 37.582031 4.417969 L 37.582031 37.582031 L 4.417969 37.582031 Z M 4.417969 4.417969 "/>
<path style=" stroke:none;fill-rule:nonzero;fill:rgb(0%,0%,0%);fill-opacity:1;" d="M 13.140625 32.128906 L 15.679688 30.59375 C 16.167969 31.460938 16.609375 32.195312 17.679688 32.195312 C 18.703125 32.195312 19.347656 31.796875 19.347656 30.238281 L 19.347656 19.644531 L 22.464844 19.644531 L 22.464844 30.28125 C 22.464844 33.507812 20.574219 34.980469 17.8125 34.980469 C 15.320312 34.980469 13.875 33.6875 13.140625 32.128906 "/>
<path style=" stroke:none;fill-rule:nonzero;fill:rgb(0%,0%,0%);fill-opacity:1;" d="M 24.15625 31.796875 L 26.695312 30.328125 C 27.363281 31.417969 28.234375 32.21875 29.765625 32.21875 C 31.058594 32.21875 31.878906 31.574219 31.878906 30.683594 C 31.878906 29.617188 31.035156 29.238281 29.609375 28.617188 L 28.832031 28.28125 C 26.585938 27.324219 25.089844 26.121094 25.089844 23.585938 C 25.089844 21.246094 26.871094 19.464844 29.65625 19.464844 C 31.636719 19.464844 33.0625 20.15625 34.085938 21.957031 L 31.65625 23.515625 C 31.125 22.558594 30.546875 22.183594 29.65625 22.183594 C 28.742188 22.183594 28.164062 22.761719 28.164062 23.515625 C 28.164062 24.453125 28.742188 24.832031 30.078125 25.410156 L 30.859375 25.742188 C 33.507812 26.878906 34.996094 28.035156 34.996094 30.640625 C 34.996094 33.445312 32.792969 34.980469 29.832031 34.980469 C 26.941406 34.980469 25.070312 33.597656 24.15625 31.796875 "/>
</g>
</svg>
