<?xml version="1.0" encoding="UTF-8"?>
<svg xmlns="http://www.w3.org/2000/svg" xmlns:xlink="http://www.w3.org/1999/xlink" width="48" height="48" viewBox="0 0 48 48" version="1.1">
<defs>
<linearGradient id="linear0" gradientUnits="userSpaceOnUse" x1="17.1884" y1="17.127899" x2="42.100899" y2="41.984001" gradientTransform="matrix(0.631579,0,0,0.631579,0,0)">
<stop offset="0" style="stop-color:rgb(21.960784%,49.411765%,72.156864%);stop-opacity:1;"/>
<stop offset="1" style="stop-color:rgb(21.176471%,41.176471%,58.039218%);stop-opacity:1;"/>
</linearGradient>
<linearGradient id="linear1" gradientUnits="userSpaceOnUse" x1="31.9266" y1="33.319801" x2="60.3894" y2="58.1684" gradientTransform="matrix(0.631579,0,0,0.631579,0,0)">
<stop offset="0" style="stop-color:rgb(100%,87.843138%,32.156864%);stop-opacity:1;"/>
<stop offset="1" style="stop-color:rgb(100%,76.47059%,19.215687%);stop-opacity:1;"/>
</linearGradient>
</defs>
<g id="surface1">
<path style=" stroke:none;fill-rule:nonzero;fill:url(#linear0);" d="M 24.023438 7.59375 C 15.613281 7.59375 16.144531 11.230469 16.144531 11.230469 L 16.144531 15.007812 L 24.140625 15.007812 L 24.140625 16.191406 L 12.960938 16.191406 C 12.960938 16.191406 7.578125 15.527344 7.578125 24.058594 C 7.578125 32.59375 12.332031 32.246094 12.332031 32.246094 L 15.074219 32.246094 L 15.074219 28.265625 C 15.074219 28.265625 14.921875 23.511719 19.695312 23.511719 L 27.699219 23.511719 C 27.699219 23.511719 32.167969 23.582031 32.167969 19.1875 L 32.167969 11.976562 C 32.167969 11.976562 32.84375 7.578125 24.066406 7.578125 Z M 19.601562 10.125 C 19.886719 10.117188 20.167969 10.195312 20.40625 10.347656 C 20.648438 10.496094 20.835938 10.71875 20.953125 10.976562 C 21.066406 11.238281 21.105469 11.527344 21.054688 11.804688 C 21.007812 12.085938 20.875 12.34375 20.679688 12.550781 C 20.484375 12.757812 20.230469 12.902344 19.953125 12.964844 C 19.675781 13.027344 19.386719 13.003906 19.121094 12.902344 C 18.855469 12.800781 18.628906 12.621094 18.464844 12.390625 C 18.300781 12.15625 18.207031 11.882812 18.203125 11.597656 L 18.203125 11.574219 C 18.203125 11.191406 18.351562 10.828125 18.621094 10.558594 C 18.890625 10.285156 19.257812 10.136719 19.640625 10.136719 Z M 19.601562 10.125 "/>
<path style=" stroke:none;fill-rule:nonzero;fill:url(#linear1);" d="M 24.257812 40.527344 C 32.667969 40.527344 32.132812 36.878906 32.132812 36.878906 L 32.132812 33.113281 L 24.140625 33.113281 L 24.140625 31.929688 L 35.355469 31.929688 C 35.355469 31.929688 40.738281 32.53125 40.738281 24.046875 C 40.738281 15.566406 35.984375 15.863281 35.984375 15.863281 L 33.207031 15.863281 L 33.207031 19.789062 C 33.207031 19.789062 33.359375 24.542969 28.585938 24.542969 L 20.574219 24.542969 C 20.574219 24.542969 16.105469 24.476562 16.105469 28.871094 L 16.105469 36.132812 C 16.105469 36.132812 15.429688 40.527344 24.207031 40.527344 Z M 28.679688 37.984375 C 28.394531 37.992188 28.113281 37.914062 27.875 37.761719 C 27.632812 37.609375 27.441406 37.390625 27.328125 37.128906 C 27.210938 36.871094 27.175781 36.582031 27.226562 36.300781 C 27.273438 36.019531 27.402344 35.761719 27.601562 35.554688 C 27.796875 35.347656 28.046875 35.207031 28.324219 35.144531 C 28.601562 35.082031 28.894531 35.101562 29.160156 35.203125 C 29.421875 35.308594 29.652344 35.484375 29.816406 35.71875 C 29.980469 35.949219 30.070312 36.226562 30.078125 36.511719 L 30.078125 36.546875 C 30.078125 36.925781 29.925781 37.292969 29.65625 37.5625 C 29.386719 37.832031 29.023438 37.984375 28.640625 37.984375 Z M 28.679688 37.984375 "/>
</g>
</svg>
