<?xml version="1.0" encoding="UTF-8"?>
<svg xmlns="http://www.w3.org/2000/svg" xmlns:xlink="http://www.w3.org/1999/xlink" width="42" height="42" viewBox="0 0 42 42" version="1.1">
<defs>
<linearGradient id="linear0" gradientUnits="userSpaceOnUse" x1="17.1884" y1="17.127899" x2="42.100899" y2="41.984001" gradientTransform="matrix(0.552632,0,0,0.552632,0,0)">
<stop offset="0" style="stop-color:rgb(21.960784%,49.411765%,72.156864%);stop-opacity:1;"/>
<stop offset="1" style="stop-color:rgb(21.176471%,41.176471%,58.039218%);stop-opacity:1;"/>
</linearGradient>
<linearGradient id="linear1" gradientUnits="userSpaceOnUse" x1="31.9266" y1="33.319801" x2="60.3894" y2="58.1684" gradientTransform="matrix(0.552632,0,0,0.552632,0,0)">
<stop offset="0" style="stop-color:rgb(100%,87.843138%,32.156864%);stop-opacity:1;"/>
<stop offset="1" style="stop-color:rgb(100%,76.47059%,19.215687%);stop-opacity:1;"/>
</linearGradient>
</defs>
<g id="surface1">
<path style=" stroke:none;fill-rule:nonzero;fill:url(#linear0);" d="M 21.019531 6.644531 C 13.660156 6.644531 14.125 9.828125 14.125 9.828125 L 14.125 13.132812 L 21.125 13.132812 L 21.125 14.167969 L 11.339844 14.167969 C 11.339844 14.167969 6.632812 13.585938 6.632812 21.050781 C 6.632812 28.519531 10.789062 28.214844 10.789062 28.214844 L 13.191406 28.214844 L 13.191406 24.734375 C 13.191406 24.734375 13.054688 20.574219 17.234375 20.574219 L 24.238281 20.574219 C 24.238281 20.574219 28.148438 20.632812 28.148438 16.789062 L 28.148438 10.480469 C 28.148438 10.480469 28.738281 6.632812 21.058594 6.632812 Z M 17.152344 8.859375 C 17.402344 8.851562 17.648438 8.921875 17.855469 9.054688 C 18.066406 9.183594 18.230469 9.378906 18.335938 9.605469 C 18.433594 9.832031 18.46875 10.085938 18.421875 10.328125 C 18.382812 10.574219 18.265625 10.800781 18.09375 10.980469 C 17.921875 11.164062 17.703125 11.289062 17.460938 11.34375 C 17.214844 11.398438 16.964844 11.378906 16.730469 11.289062 C 16.5 11.199219 16.300781 11.042969 16.15625 10.84375 C 16.011719 10.636719 15.929688 10.398438 15.929688 10.148438 L 15.929688 10.128906 C 15.929688 9.792969 16.058594 9.476562 16.292969 9.238281 C 16.53125 9 16.851562 8.871094 17.1875 8.871094 Z M 17.152344 8.859375 "/>
<path style=" stroke:none;fill-rule:nonzero;fill:url(#linear1);" d="M 21.226562 35.460938 C 28.585938 35.460938 28.117188 32.269531 28.117188 32.269531 L 28.117188 28.972656 L 21.125 28.972656 L 21.125 27.9375 L 30.9375 27.9375 C 30.9375 27.9375 35.644531 28.464844 35.644531 21.039062 C 35.644531 13.621094 31.484375 13.878906 31.484375 13.878906 L 29.054688 13.878906 L 29.054688 17.316406 C 29.054688 17.316406 29.1875 21.476562 25.011719 21.476562 L 18.003906 21.476562 C 18.003906 21.476562 14.09375 21.417969 14.09375 25.261719 L 14.09375 31.617188 C 14.09375 31.617188 13.5 35.460938 21.179688 35.460938 Z M 25.09375 33.234375 C 24.84375 33.242188 24.597656 33.175781 24.390625 33.042969 C 24.179688 32.90625 24.011719 32.71875 23.914062 32.488281 C 23.808594 32.261719 23.777344 32.007812 23.824219 31.761719 C 23.863281 31.515625 23.976562 31.292969 24.152344 31.109375 C 24.320312 30.929688 24.539062 30.804688 24.785156 30.75 C 25.027344 30.695312 25.28125 30.714844 25.515625 30.804688 C 25.742188 30.894531 25.945312 31.046875 26.089844 31.253906 C 26.234375 31.457031 26.3125 31.699219 26.320312 31.949219 L 26.320312 31.976562 C 26.320312 32.308594 26.183594 32.632812 25.949219 32.867188 C 25.714844 33.101562 25.394531 33.234375 25.0625 33.234375 Z M 25.09375 33.234375 "/>
</g>
</svg>
