<?xml version="1.0" encoding="UTF-8"?>
<svg xmlns="http://www.w3.org/2000/svg" xmlns:xlink="http://www.w3.org/1999/xlink" width="48" height="48" viewBox="0 0 48 48" version="1.1">
<g id="surface1">
<path style=" stroke:none;fill-rule:nonzero;fill:rgb(80.392158%,40.392157%,60.000002%);fill-opacity:1;" d="M 38.132812 26.035156 C 36.929688 26.039062 35.738281 26.316406 34.65625 26.84375 C 34.296875 26.136719 33.9375 25.503906 33.875 25.039062 C 33.804688 24.5 33.722656 24.171875 33.804688 23.523438 C 33.890625 22.878906 34.269531 21.960938 34.261719 21.890625 C 34.253906 21.820312 34.175781 21.488281 33.40625 21.484375 C 32.632812 21.476562 31.964844 21.628906 31.890625 21.832031 C 31.753906 22.207031 31.648438 22.589844 31.566406 22.976562 C 31.433594 23.679688 30.023438 26.183594 29.214844 27.496094 C 28.957031 26.984375 28.730469 26.535156 28.683594 26.175781 C 28.613281 25.636719 28.527344 25.308594 28.613281 24.660156 C 28.695312 24.015625 29.074219 23.097656 29.070312 23.027344 C 29.0625 22.957031 28.984375 22.625 28.210938 22.621094 C 27.441406 22.613281 26.773438 22.765625 26.695312 22.96875 C 26.621094 23.175781 26.535156 23.652344 26.375 24.113281 C 26.210938 24.578125 24.339844 28.757812 23.847656 29.839844 C 23.648438 30.277344 23.441406 30.710938 23.222656 31.140625 C 23.222656 31.140625 23.214844 31.160156 23.195312 31.195312 C 23.125 31.328125 23.054688 31.460938 22.984375 31.59375 L 22.984375 31.601562 C 22.878906 31.792969 22.765625 31.964844 22.710938 31.964844 C 22.667969 31.964844 22.589844 31.460938 22.726562 30.773438 C 23.003906 29.320312 23.671875 27.0625 23.664062 26.984375 C 23.664062 26.941406 23.792969 26.550781 23.230469 26.34375 C 22.683594 26.140625 22.484375 26.480469 22.4375 26.480469 C 22.386719 26.480469 22.351562 26.597656 22.351562 26.597656 C 22.351562 26.597656 22.964844 24.058594 21.1875 24.058594 C 20.078125 24.058594 18.550781 25.273438 17.792969 26.367188 C 16.929688 26.835938 16.070312 27.304688 15.207031 27.777344 C 14.796875 28.007812 14.367188 28.242188 13.964844 28.457031 C 13.9375 28.429688 13.910156 28.394531 13.882812 28.367188 C 11.734375 26.070312 7.761719 24.449219 7.933594 21.371094 C 7.996094 20.246094 8.378906 17.300781 15.558594 13.722656 C 21.46875 10.808594 26.171875 11.617188 26.984375 13.40625 C 28.148438 15.960938 24.464844 20.703125 18.359375 21.390625 C 16.03125 21.652344 14.808594 20.753906 14.5 20.414062 C 14.175781 20.066406 14.128906 20.042969 14.007812 20.113281 C 13.8125 20.21875 13.9375 20.535156 14.007812 20.71875 C 14.191406 21.195312 14.941406 22.035156 16.210938 22.449219 C 17.335938 22.816406 20.066406 23.019531 23.371094 21.742188 C 27.066406 20.308594 29.960938 16.332031 29.109375 13 C 28.261719 9.617188 22.648438 8.5 17.335938 10.386719 C 14.175781 11.511719 10.753906 13.277344 8.289062 15.582031 C 5.363281 18.316406 4.898438 20.695312 5.089844 21.691406 C 5.769531 25.230469 10.648438 27.53125 12.597656 29.238281 C 12.5 29.292969 12.410156 29.34375 12.332031 29.382812 C 11.355469 29.867188 7.636719 31.8125 6.710938 33.867188 C 5.660156 36.199219 6.878906 37.867188 7.6875 38.09375 C 10.191406 38.789062 12.765625 37.539062 14.148438 35.476562 C 15.53125 33.414062 15.363281 30.730469 14.726562 29.503906 C 14.71875 29.488281 14.710938 29.476562 14.695312 29.460938 C 14.949219 29.3125 15.207031 29.160156 15.460938 29.011719 C 15.925781 28.738281 16.394531 28.472656 16.871094 28.21875 C 16.632812 28.871094 16.457031 29.652344 16.375 30.773438 C 16.269531 32.09375 16.808594 33.804688 17.515625 34.480469 C 17.832031 34.773438 18.207031 34.78125 18.445312 34.78125 C 19.273438 34.78125 19.644531 34.09375 20.058594 33.277344 C 20.5625 32.28125 21.019531 31.125 21.019531 31.125 C 21.019531 31.125 20.449219 34.253906 21.996094 34.253906 C 22.558594 34.253906 23.125 33.523438 23.378906 33.152344 L 23.378906 33.160156 C 23.378906 33.160156 23.390625 33.136719 23.417969 33.089844 L 23.511719 32.941406 L 23.511719 32.929688 C 24.027344 32.019531 24.523438 31.097656 24.992188 30.164062 C 25.960938 28.253906 26.894531 25.867188 26.894531 25.867188 C 26.894531 25.867188 26.976562 26.449219 27.265625 27.417969 C 27.433594 27.988281 27.785156 28.613281 28.066406 29.214844 C 27.839844 29.53125 27.699219 29.707031 27.699219 29.707031 L 27.707031 29.714844 C 27.523438 29.953125 27.328125 30.210938 27.109375 30.464844 C 26.34375 31.378906 25.433594 32.421875 25.308594 32.726562 C 25.160156 33.082031 25.195312 33.34375 25.476562 33.550781 C 25.679688 33.707031 26.042969 33.726562 26.414062 33.707031 C 27.105469 33.65625 27.589844 33.488281 27.824219 33.382812 C 28.261719 33.230469 28.667969 33.015625 29.039062 32.746094 C 29.792969 32.191406 30.246094 31.398438 30.207031 30.351562 C 30.183594 29.777344 29.996094 29.203125 29.761719 28.660156 C 29.832031 28.5625 29.894531 28.464844 29.964844 28.367188 C 31.152344 26.632812 32.070312 24.730469 32.070312 24.730469 C 32.070312 24.730469 32.15625 25.3125 32.445312 26.28125 C 32.585938 26.773438 32.871094 27.308594 33.125 27.824219 C 32.007812 28.730469 31.320312 29.785156 31.074219 30.472656 C 30.632812 31.75 30.976562 32.324219 31.628906 32.457031 C 31.925781 32.519531 32.34375 32.378906 32.65625 32.246094 C 33.121094 32.09375 33.558594 31.871094 33.953125 31.582031 C 34.703125 31.027344 35.425781 30.253906 35.382812 29.210938 C 35.363281 28.730469 35.238281 28.261719 35.0625 27.804688 C 36.007812 27.414062 37.230469 27.195312 38.789062 27.378906 C 42.128906 27.769531 42.789062 29.855469 42.660156 30.730469 C 42.535156 31.609375 41.832031 32.085938 41.601562 32.234375 C 41.371094 32.382812 41.292969 32.429688 41.3125 32.535156 C 41.34375 32.6875 41.453125 32.683594 41.652344 32.65625 C 41.925781 32.605469 43.40625 31.945312 43.46875 30.332031 C 43.574219 28.269531 41.609375 26.015625 38.136719 26.035156 Z M 12.367188 34.726562 C 11.257812 35.929688 9.714844 36.386719 9.046875 36 C 8.332031 35.585938 8.613281 33.804688 9.972656 32.527344 C 10.800781 31.75 11.867188 31.027344 12.578125 30.585938 C 12.738281 30.484375 12.976562 30.34375 13.265625 30.171875 C 13.3125 30.140625 13.34375 30.128906 13.34375 30.128906 L 13.511719 30.023438 C 14.007812 31.847656 13.53125 33.453125 12.367188 34.726562 Z M 20.4375 29.238281 C 20.050781 30.175781 19.242188 32.582031 18.753906 32.449219 C 18.332031 32.339844 18.070312 30.515625 18.667969 28.710938 C 18.96875 27.804688 19.609375 26.726562 19.980469 26.304688 C 20.585938 25.628906 21.25 25.40625 21.414062 25.679688 C 21.617188 26.035156 20.675781 28.648438 20.4375 29.238281 Z M 27.097656 32.421875 C 26.933594 32.507812 26.78125 32.5625 26.710938 32.519531 C 26.660156 32.492188 26.78125 32.382812 26.78125 32.382812 C 26.78125 32.382812 27.617188 31.480469 27.945312 31.074219 C 28.136719 30.835938 28.359375 30.554688 28.597656 30.242188 L 28.597656 30.332031 C 28.597656 31.40625 27.558594 32.128906 27.097656 32.421875 Z M 32.234375 31.25 C 32.113281 31.167969 32.136719 30.886719 32.535156 30.007812 C 32.6875 29.664062 33.054688 29.089844 33.679688 28.535156 C 33.75 28.757812 33.800781 28.976562 33.792969 29.179688 C 33.785156 30.535156 32.816406 31.039062 32.234375 31.25 Z M 32.234375 31.25 "/>
</g>
</svg>
