<?xml version="1.0" encoding="UTF-8"?>
<svg xmlns="http://www.w3.org/2000/svg" xmlns:xlink="http://www.w3.org/1999/xlink" width="42" height="42" viewBox="0 0 42 42" version="1.1">
<g id="surface1">
<path style=" stroke:none;fill-rule:nonzero;fill:rgb(80.392158%,40.392157%,60.000002%);fill-opacity:1;" d="M 33.367188 22.78125 C 32.3125 22.785156 31.269531 23.027344 30.324219 23.488281 C 30.007812 22.871094 29.695312 22.316406 29.640625 21.910156 C 29.578125 21.4375 29.507812 21.148438 29.578125 20.582031 C 29.65625 20.019531 29.984375 19.214844 29.980469 19.15625 C 29.972656 19.09375 29.902344 18.800781 29.230469 18.796875 C 28.554688 18.792969 27.96875 18.925781 27.90625 19.101562 C 27.785156 19.429688 27.691406 19.765625 27.621094 20.105469 C 27.503906 20.71875 26.269531 22.910156 25.5625 24.058594 C 25.335938 23.609375 25.140625 23.21875 25.097656 22.902344 C 25.035156 22.433594 24.960938 22.144531 25.035156 21.578125 C 25.109375 21.015625 25.441406 20.210938 25.4375 20.148438 C 25.429688 20.085938 25.359375 19.796875 24.683594 19.792969 C 24.011719 19.785156 23.425781 19.921875 23.359375 20.097656 C 23.292969 20.277344 23.21875 20.695312 23.078125 21.097656 C 22.933594 21.507812 21.296875 25.164062 20.867188 26.109375 C 20.691406 26.492188 20.511719 26.871094 20.320312 27.25 C 20.320312 27.25 20.3125 27.265625 20.296875 27.296875 C 20.234375 27.414062 20.171875 27.527344 20.109375 27.644531 L 20.109375 27.652344 C 20.019531 27.820312 19.921875 27.96875 19.871094 27.96875 C 19.835938 27.96875 19.765625 27.527344 19.886719 26.925781 C 20.128906 25.65625 20.710938 23.679688 20.707031 23.609375 C 20.707031 23.574219 20.820312 23.230469 20.328125 23.050781 C 19.847656 22.875 19.671875 23.171875 19.632812 23.171875 C 19.589844 23.171875 19.558594 23.273438 19.558594 23.273438 C 19.558594 23.273438 20.09375 21.050781 18.539062 21.050781 C 17.570312 21.050781 16.230469 22.113281 15.570312 23.070312 C 14.8125 23.480469 14.0625 23.890625 13.304688 24.304688 C 12.945312 24.507812 12.570312 24.710938 12.21875 24.898438 C 12.195312 24.875 12.171875 24.84375 12.148438 24.820312 C 10.265625 22.8125 6.792969 21.394531 6.941406 18.699219 C 6.996094 17.714844 7.332031 15.136719 13.613281 12.007812 C 18.785156 9.457031 22.898438 10.164062 23.609375 11.730469 C 24.628906 13.964844 21.40625 18.117188 16.0625 18.71875 C 14.027344 18.945312 12.957031 18.160156 12.6875 17.863281 C 12.402344 17.558594 12.363281 17.539062 12.257812 17.597656 C 12.085938 17.691406 12.195312 17.96875 12.257812 18.128906 C 12.417969 18.546875 13.074219 19.28125 14.183594 19.644531 C 15.167969 19.964844 17.558594 20.140625 20.449219 19.023438 C 23.683594 17.769531 26.214844 14.289062 25.46875 11.375 C 24.730469 8.414062 19.816406 7.4375 15.167969 9.089844 C 12.402344 10.074219 9.410156 11.617188 7.253906 13.632812 C 4.691406 16.027344 4.285156 18.109375 4.453125 18.980469 C 5.046875 22.078125 9.316406 24.089844 11.023438 25.582031 C 10.9375 25.632812 10.859375 25.675781 10.789062 25.710938 C 9.9375 26.132812 6.683594 27.835938 5.871094 29.632812 C 4.953125 31.675781 6.019531 33.132812 6.726562 33.332031 C 8.917969 33.941406 11.171875 32.847656 12.378906 31.042969 C 13.589844 29.238281 13.441406 26.890625 12.886719 25.816406 C 12.878906 25.800781 12.871094 25.792969 12.859375 25.777344 C 13.082031 25.648438 13.304688 25.515625 13.527344 25.386719 C 13.933594 25.144531 14.34375 24.914062 14.761719 24.691406 C 14.554688 25.261719 14.398438 25.945312 14.328125 26.925781 C 14.234375 28.082031 14.707031 29.578125 15.328125 30.171875 C 15.601562 30.425781 15.929688 30.433594 16.140625 30.433594 C 16.863281 30.433594 17.1875 29.832031 17.550781 29.117188 C 17.992188 28.246094 18.390625 27.234375 18.390625 27.234375 C 18.390625 27.234375 17.894531 29.972656 19.246094 29.972656 C 19.738281 29.972656 20.234375 29.332031 20.457031 29.007812 L 20.457031 29.015625 C 20.457031 29.015625 20.46875 28.996094 20.492188 28.953125 L 20.574219 28.824219 L 20.574219 28.8125 C 21.023438 28.015625 21.457031 27.210938 21.867188 26.394531 C 22.714844 24.722656 23.53125 22.632812 23.53125 22.632812 C 23.53125 22.632812 23.605469 23.144531 23.859375 23.992188 C 24.003906 24.488281 24.3125 25.035156 24.558594 25.5625 C 24.359375 25.839844 24.238281 25.992188 24.238281 25.992188 L 24.242188 26 C 24.082031 26.210938 23.914062 26.433594 23.71875 26.65625 C 23.050781 27.457031 22.253906 28.367188 22.144531 28.636719 C 22.015625 28.945312 22.046875 29.175781 22.292969 29.355469 C 22.46875 29.492188 22.789062 29.511719 23.113281 29.492188 C 23.71875 29.449219 24.140625 29.300781 24.347656 29.210938 C 24.730469 29.078125 25.085938 28.890625 25.410156 28.652344 C 26.070312 28.167969 26.464844 27.472656 26.429688 26.558594 C 26.410156 26.054688 26.246094 25.554688 26.042969 25.078125 C 26.101562 24.992188 26.15625 24.90625 26.21875 24.820312 C 27.257812 23.304688 28.0625 21.640625 28.0625 21.640625 C 28.0625 21.640625 28.136719 22.148438 28.390625 22.996094 C 28.511719 23.425781 28.761719 23.894531 28.984375 24.347656 C 28.007812 25.140625 27.40625 26.0625 27.191406 26.664062 C 26.804688 27.78125 27.105469 28.285156 27.675781 28.398438 C 27.933594 28.453125 28.300781 28.332031 28.574219 28.214844 C 28.980469 28.082031 29.363281 27.886719 29.710938 27.632812 C 30.367188 27.148438 30.996094 26.472656 30.960938 25.558594 C 30.941406 25.140625 30.832031 24.730469 30.679688 24.328125 C 31.507812 23.988281 32.578125 23.796875 33.941406 23.957031 C 36.863281 24.296875 37.441406 26.125 37.328125 26.890625 C 37.21875 27.65625 36.601562 28.074219 36.402344 28.203125 C 36.199219 28.335938 36.132812 28.375 36.148438 28.46875 C 36.175781 28.601562 36.273438 28.597656 36.445312 28.574219 C 36.683594 28.53125 37.980469 27.953125 38.035156 26.539062 C 38.128906 24.734375 36.40625 22.765625 33.371094 22.78125 Z M 10.820312 30.386719 C 9.851562 31.4375 8.5 31.839844 7.914062 31.5 C 7.289062 31.136719 7.535156 29.578125 8.726562 28.460938 C 9.449219 27.78125 10.382812 27.148438 11.007812 26.761719 C 11.144531 26.671875 11.355469 26.550781 11.609375 26.398438 C 11.648438 26.375 11.675781 26.363281 11.675781 26.363281 L 11.824219 26.269531 C 12.257812 27.867188 11.839844 29.273438 10.820312 30.386719 Z M 17.882812 25.582031 C 17.542969 26.402344 16.835938 28.507812 16.410156 28.394531 C 16.039062 28.296875 15.8125 26.703125 16.335938 25.121094 C 16.597656 24.328125 17.15625 23.386719 17.484375 23.015625 C 18.011719 22.425781 18.59375 22.230469 18.738281 22.46875 C 18.914062 22.78125 18.089844 25.066406 17.882812 25.582031 Z M 23.710938 28.367188 C 23.566406 28.445312 23.433594 28.492188 23.371094 28.453125 C 23.328125 28.429688 23.433594 28.335938 23.433594 28.335938 C 23.433594 28.335938 24.164062 27.546875 24.453125 27.191406 C 24.621094 26.980469 24.8125 26.734375 25.023438 26.460938 L 25.023438 26.539062 C 25.023438 27.480469 24.113281 28.113281 23.710938 28.367188 Z M 28.203125 27.34375 C 28.097656 27.273438 28.121094 27.027344 28.46875 26.257812 C 28.601562 25.957031 28.921875 25.453125 29.46875 24.96875 C 29.53125 25.164062 29.574219 25.355469 29.570312 25.53125 C 29.5625 26.71875 28.714844 27.160156 28.203125 27.34375 Z M 28.203125 27.34375 "/>
</g>
</svg>
