<?xml version="1.0" encoding="UTF-8"?>
<svg xmlns="http://www.w3.org/2000/svg" xmlns:xlink="http://www.w3.org/1999/xlink" width="48" height="48" viewBox="0 0 48 48" version="1.1">
<g id="surface1">
<path style=" stroke:none;fill-rule:nonzero;fill:rgb(100%,24.313726%,0%);fill-opacity:1;" d="M 37.738281 10.046875 C 35.984375 7.617188 33.390625 5.925781 30.457031 5.308594 C 27.53125 4.695312 24.480469 5.199219 21.910156 6.722656 L 12.890625 12.351562 C 11.679688 13.089844 10.640625 14.074219 9.835938 15.242188 C 9.03125 16.410156 8.480469 17.738281 8.21875 19.136719 C 7.789062 21.476562 8.167969 23.894531 9.292969 25.988281 C 8.523438 27.132812 7.996094 28.425781 7.75 29.78125 C 7.492188 31.203125 7.527344 32.65625 7.851562 34.0625 C 8.171875 35.464844 8.777344 36.785156 9.628906 37.949219 C 11.378906 40.378906 13.976562 42.070312 16.90625 42.691406 C 19.832031 43.308594 22.878906 42.804688 25.457031 41.277344 L 34.476562 35.652344 C 35.683594 34.914062 36.726562 33.929688 37.527344 32.761719 C 38.335938 31.589844 38.886719 30.265625 39.148438 28.867188 C 39.578125 26.523438 39.199219 24.105469 38.074219 22.007812 C 38.84375 20.863281 39.371094 19.574219 39.621094 18.214844 C 39.875 16.796875 39.839844 15.339844 39.515625 13.9375 C 39.195312 12.53125 38.589844 11.210938 37.738281 10.050781 "/>
<path style=" stroke:none;fill-rule:nonzero;fill:rgb(100%,100%,100%);fill-opacity:1;" d="M 20.617188 38.292969 C 19.152344 38.664062 17.617188 38.589844 16.195312 38.085938 C 14.777344 37.585938 13.546875 36.675781 12.652344 35.46875 C 12.121094 34.761719 11.742188 33.957031 11.539062 33.101562 C 11.335938 32.246094 11.3125 31.355469 11.472656 30.492188 C 11.527344 30.207031 11.597656 29.925781 11.695312 29.652344 L 11.871094 29.140625 L 12.351562 29.464844 C 13.464844 30.246094 14.699219 30.839844 16.007812 31.214844 L 16.347656 31.316406 L 16.3125 31.640625 C 16.273438 32.113281 16.40625 32.585938 16.691406 32.96875 C 16.957031 33.339844 17.332031 33.625 17.765625 33.777344 C 18.199219 33.933594 18.667969 33.957031 19.117188 33.84375 C 19.316406 33.789062 19.511719 33.710938 19.6875 33.601562 L 29.011719 27.898438 C 29.238281 27.765625 29.433594 27.582031 29.585938 27.367188 C 29.894531 26.933594 30 26.386719 29.878906 25.867188 C 29.820312 25.609375 29.710938 25.367188 29.554688 25.15625 C 29.285156 24.789062 28.910156 24.515625 28.484375 24.363281 C 28.054688 24.210938 27.59375 24.191406 27.152344 24.300781 C 26.949219 24.351562 26.753906 24.433594 26.578125 24.542969 L 22.996094 26.714844 C 22.40625 27.074219 21.769531 27.34375 21.097656 27.515625 C 19.636719 27.886719 18.09375 27.8125 16.671875 27.308594 C 15.257812 26.808594 14.023438 25.894531 13.128906 24.6875 C 12.601562 23.980469 12.226562 23.171875 12.027344 22.316406 C 11.828125 21.460938 11.808594 20.570312 11.972656 19.707031 C 12.136719 18.855469 12.480469 18.046875 12.980469 17.335938 C 13.484375 16.625 14.128906 16.023438 14.878906 15.574219 L 24.214844 9.875 C 24.804688 9.515625 25.445312 9.246094 26.113281 9.078125 C 27.574219 8.703125 29.117188 8.777344 30.539062 9.28125 C 31.957031 9.78125 33.191406 10.695312 34.082031 11.902344 C 34.613281 12.605469 34.992188 13.410156 35.195312 14.269531 C 35.398438 15.125 35.421875 16.011719 35.265625 16.878906 C 35.210938 17.160156 35.136719 17.441406 35.042969 17.714844 L 34.867188 18.230469 L 34.386719 17.90625 C 33.273438 17.121094 32.039062 16.53125 30.730469 16.15625 L 30.390625 16.054688 L 30.421875 15.730469 C 30.464844 15.253906 30.328125 14.78125 30.042969 14.402344 C 29.777344 14.035156 29.40625 13.761719 28.980469 13.609375 C 28.550781 13.457031 28.085938 13.433594 27.644531 13.546875 C 27.441406 13.597656 27.25 13.679688 27.074219 13.789062 L 17.71875 19.472656 C 17.492188 19.605469 17.296875 19.785156 17.144531 20 C 16.992188 20.214844 16.890625 20.460938 16.839844 20.71875 C 16.734375 21.242188 16.859375 21.789062 17.179688 22.214844 C 17.449219 22.582031 17.820312 22.855469 18.25 23.007812 C 18.675781 23.160156 19.140625 23.179688 19.582031 23.070312 C 19.785156 23.015625 19.976562 22.9375 20.15625 22.828125 L 23.722656 20.652344 C 24.3125 20.292969 24.949219 20.023438 25.621094 19.855469 C 27.082031 19.484375 28.625 19.554688 30.046875 20.058594 C 31.464844 20.558594 32.699219 21.472656 33.589844 22.683594 C 34.121094 23.386719 34.5 24.191406 34.699219 25.050781 C 34.902344 25.90625 34.925781 26.792969 34.765625 27.65625 C 34.601562 28.511719 34.257812 29.320312 33.757812 30.03125 C 33.253906 30.746094 32.605469 31.34375 31.859375 31.792969 L 22.523438 37.496094 C 21.933594 37.855469 21.292969 38.125 20.625 38.292969 "/>
</g>
</svg>
