<?xml version="1.0" encoding="UTF-8"?>
<svg xmlns="http://www.w3.org/2000/svg" xmlns:xlink="http://www.w3.org/1999/xlink" width="42" height="42" viewBox="0 0 42 42" version="1.1">
<g id="surface1">
<path style=" stroke:none;fill-rule:nonzero;fill:rgb(100%,24.313726%,0%);fill-opacity:1;" d="M 33.019531 8.789062 C 31.484375 6.664062 29.21875 5.183594 26.648438 4.644531 C 24.089844 4.109375 21.421875 4.550781 19.171875 5.882812 L 11.28125 10.808594 C 10.21875 11.453125 9.3125 12.316406 8.605469 13.335938 C 7.902344 14.359375 7.421875 15.519531 7.191406 16.746094 C 6.816406 18.792969 7.148438 20.90625 8.132812 22.738281 C 7.457031 23.742188 6.996094 24.871094 6.78125 26.058594 C 6.554688 27.304688 6.585938 28.574219 6.871094 29.804688 C 7.148438 31.03125 7.679688 32.1875 8.425781 33.207031 C 9.957031 35.332031 12.230469 36.8125 14.792969 37.355469 C 17.351562 37.894531 20.019531 37.453125 22.273438 36.117188 L 30.167969 31.195312 C 31.222656 30.550781 32.136719 29.6875 32.835938 28.667969 C 33.542969 27.640625 34.027344 26.484375 34.253906 25.257812 C 34.632812 23.207031 34.300781 21.09375 33.316406 19.257812 C 33.988281 18.253906 34.449219 17.128906 34.667969 15.9375 C 34.890625 14.695312 34.859375 13.421875 34.578125 12.195312 C 34.296875 10.964844 33.765625 9.808594 33.019531 8.792969 "/>
<path style=" stroke:none;fill-rule:nonzero;fill:rgb(100%,100%,100%);fill-opacity:1;" d="M 18.039062 33.507812 C 16.757812 33.832031 15.414062 33.765625 14.171875 33.324219 C 12.929688 32.886719 11.851562 32.089844 11.070312 31.035156 C 10.605469 30.417969 10.273438 29.710938 10.097656 28.964844 C 9.917969 28.214844 9.898438 27.4375 10.039062 26.679688 C 10.085938 26.429688 10.148438 26.183594 10.234375 25.945312 L 10.386719 25.5 L 10.808594 25.78125 C 11.78125 26.464844 12.863281 26.984375 14.007812 27.3125 L 14.304688 27.402344 L 14.273438 27.6875 C 14.238281 28.097656 14.355469 28.511719 14.605469 28.847656 C 14.835938 29.171875 15.164062 29.421875 15.546875 29.554688 C 15.925781 29.691406 16.335938 29.710938 16.726562 29.613281 C 16.902344 29.566406 17.074219 29.496094 17.226562 29.402344 L 25.386719 24.410156 C 25.582031 24.296875 25.753906 24.132812 25.886719 23.945312 C 26.15625 23.566406 26.25 23.089844 26.144531 22.632812 C 26.09375 22.40625 25.996094 22.195312 25.859375 22.011719 C 25.625 21.691406 25.296875 21.453125 24.921875 21.316406 C 24.546875 21.183594 24.144531 21.167969 23.757812 21.261719 C 23.582031 21.308594 23.410156 21.378906 23.257812 21.476562 L 20.121094 23.375 C 19.605469 23.691406 19.046875 23.925781 18.460938 24.078125 C 17.183594 24.402344 15.832031 24.335938 14.585938 23.894531 C 13.351562 23.457031 12.269531 22.65625 11.488281 21.601562 C 11.027344 20.984375 10.699219 20.273438 10.523438 19.527344 C 10.351562 18.777344 10.332031 18 10.476562 17.242188 C 10.621094 16.5 10.921875 15.789062 11.359375 15.167969 C 11.796875 14.546875 12.363281 14.019531 13.019531 13.628906 L 21.1875 8.640625 C 21.703125 8.328125 22.265625 8.089844 22.847656 7.945312 C 24.128906 7.617188 25.476562 7.679688 26.722656 8.121094 C 27.960938 8.558594 29.042969 9.359375 29.820312 10.414062 C 30.285156 11.03125 30.617188 11.734375 30.796875 12.484375 C 30.972656 13.234375 30.992188 14.011719 30.859375 14.769531 C 30.808594 15.015625 30.746094 15.261719 30.664062 15.5 L 30.507812 15.953125 L 30.089844 15.667969 C 29.113281 14.980469 28.035156 14.464844 26.890625 14.136719 L 26.59375 14.046875 L 26.617188 13.765625 C 26.65625 13.347656 26.539062 12.933594 26.289062 12.601562 C 26.054688 12.28125 25.730469 12.042969 25.359375 11.90625 C 24.980469 11.773438 24.574219 11.753906 24.1875 11.851562 C 24.011719 11.898438 23.84375 11.96875 23.691406 12.066406 L 15.503906 17.039062 C 15.304688 17.15625 15.132812 17.3125 15 17.5 C 14.867188 17.6875 14.78125 17.902344 14.734375 18.128906 C 14.640625 18.585938 14.75 19.066406 15.03125 19.4375 C 15.269531 19.757812 15.59375 20 15.96875 20.132812 C 16.339844 20.265625 16.75 20.28125 17.132812 20.1875 C 17.3125 20.140625 17.480469 20.070312 17.636719 19.976562 L 20.757812 18.070312 C 21.273438 17.757812 21.832031 17.519531 22.417969 17.375 C 23.695312 17.046875 25.046875 17.109375 26.289062 17.550781 C 27.53125 17.988281 28.613281 18.789062 29.390625 19.847656 C 29.855469 20.464844 30.1875 21.167969 30.363281 21.917969 C 30.539062 22.667969 30.558594 23.445312 30.421875 24.199219 C 30.277344 24.949219 29.976562 25.65625 29.539062 26.277344 C 29.097656 26.902344 28.53125 27.425781 27.875 27.820312 L 19.707031 32.808594 C 19.191406 33.125 18.632812 33.359375 18.046875 33.507812 "/>
</g>
</svg>
